<svg width="1077" height="758" viewBox="0 0 1077 758" fill="none" xmlns="http://www.w3.org/2000/svg">
<g filter="url(#filter0_f_1226_6650)">
<path d="M76.8124 519.513L63.2085 511.013C48.6894 501.941 31.3379 498.534 14.4663 501.442C-16.7541 506.823 -47.6733 490.459 -60.7812 461.617L-69.1131 443.284C-84.6295 409.142 -69.264 368.903 -34.9408 353.793C-19.1166 346.827 -1.2192 346.215 15.0442 352.083L138.782 396.73L372.903 454.448C415.491 464.948 459.949 446.469 482.547 408.876L617.37 184.589L672.46 57.0404C684.974 28.0681 710.43 6.70304 741.133 -0.596555L799.128 -14.3846C827.492 -21.1279 856.763 -7.44433 869.779 18.6428C877.248 33.6117 878.429 50.9434 873.061 66.7872L863.751 94.2632C853.681 123.982 830.245 147.252 800.455 157.109L771.123 166.816C755.032 172.14 740.558 181.467 729.061 193.92L666.819 261.341C661.015 267.628 656.042 274.634 652.021 282.187L516.722 536.373C515.213 539.209 515.729 542.698 517.996 544.974C523.589 550.592 517.505 559.851 510.129 556.946L317.472 481.072C305.324 476.287 291.797 476.381 279.717 481.333L167.727 527.235C137.946 539.442 104.109 536.568 76.8124 519.513Z" fill="url(#paint0_linear_1226_6650)" fill-opacity="0.16"/>
</g>
<defs>
<filter id="filter0_f_1226_6650" x="-275.165" y="-216.092" width="1351.54" height="973.589" filterUnits="userSpaceOnUse" color-interpolation-filters="sRGB">
<feFlood flood-opacity="0" result="BackgroundImageFix"/>
<feBlend mode="normal" in="SourceGraphic" in2="BackgroundImageFix" result="shape"/>
<feGaussianBlur stdDeviation="100" result="effect1_foregroundBlur_1226_6650"/>
</filter>
<linearGradient id="paint0_linear_1226_6650" x1="222.571" y1="423.416" x2="-8.44521" y2="439.36" gradientUnits="userSpaceOnUse">
<stop stop-color="#4B5BEA"/>
<stop offset="1" stop-color="#7FF0FF" stop-opacity="0"/>
</linearGradient>
</defs>
</svg>
