<svg width="537" height="488" viewBox="0 0 537 488" fill="none" xmlns="http://www.w3.org/2000/svg">
<g filter="url(#filter0_f_1226_6651)">
<path d="M-44.0725 322.766L-58.0519 314.038C-72.6667 304.914 -90.129 301.49 -107.108 304.418C-138.538 309.838 -169.668 293.366 -182.866 264.331L-191.203 245.991C-206.827 211.619 -191.357 171.106 -156.799 155.895C-140.878 148.888 -122.872 148.269 -106.507 154.167L-24.8483 183.598C2.39472 193.417 32.5564 190.943 57.8361 176.818L68.6621 170.769C96.8891 154.997 131 153.846 160.226 167.681L373.985 268.867C378.237 270.88 381.301 274.767 382.267 279.371L386.261 298.421C388.582 309.489 374.299 316.034 367.431 307.051C365.749 304.852 363.274 303.396 360.534 302.994L205.919 280.334C188.186 277.736 170.08 279.95 153.496 286.747L46.8068 330.471C17.038 342.671 -16.7824 339.803 -44.0725 322.766Z" fill="url(#paint0_linear_1226_6651)"/>
<path d="M-44.0725 322.766L-58.0519 314.038C-72.6667 304.914 -90.129 301.49 -107.108 304.418C-138.538 309.838 -169.668 293.366 -182.866 264.331L-191.203 245.991C-206.827 211.619 -191.357 171.106 -156.799 155.895C-140.878 148.888 -122.872 148.269 -106.507 154.167L-24.8483 183.598C2.39472 193.417 32.5564 190.943 57.8361 176.818L68.6621 170.769C96.8891 154.997 131 153.846 160.226 167.681L373.985 268.867C378.237 270.88 381.301 274.767 382.267 279.371L386.261 298.421C388.582 309.489 374.299 316.034 367.431 307.051C365.749 304.852 363.274 303.396 360.534 302.994L205.919 280.334C188.186 277.736 170.08 279.95 153.496 286.747L46.8068 330.471C17.038 342.671 -16.7824 339.803 -44.0725 322.766Z" fill="#1BADFF"/>
</g>
<defs>
<filter id="filter0_f_1226_6651" x="-347.297" y="0.151367" width="883.81" height="487.789" filterUnits="userSpaceOnUse" color-interpolation-filters="sRGB">
<feFlood flood-opacity="0" result="BackgroundImageFix"/>
<feBlend mode="normal" in="SourceGraphic" in2="BackgroundImageFix" result="shape"/>
<feGaussianBlur stdDeviation="75" result="effect1_foregroundBlur_1226_6651"/>
</filter>
<linearGradient id="paint0_linear_1226_6651" x1="47.5404" y1="320.627" x2="391.939" y2="273.417" gradientUnits="userSpaceOnUse">
<stop stop-color="#001AF5"/>
<stop offset="1" stop-color="#001AF5" stop-opacity="0"/>
</linearGradient>
</defs>
</svg>
